<svg xmlns="http://www.w3.org/2000/svg" width="300" height="260" viewBox="0 0 300 260"><path d="M300 90.9c0 94.7-88.7 152.6-102.4 160.2-9.9 5.1-19.3 8.9-25.7 8.9-5.6 0-9-2.5-9-7.2s4.7-10.1 9-13.5c12.9-8.9 48-56.2 48-100.2 0-11.8-6.4-22.4-13.7-26.2-8.1-4.7-46.7-12.7-46.7-60.5 0-27.5 23.1-52 54.9-52C257.1 0 300 31.7 300 90.9zm-159.9 0c0 94.7-88.7 152.6-102.4 160.2-9.9 5.1-19.3 8.9-25.7 8.9-5.6 0-9-2.5-9-7.2s4.7-10.1 9-13.5c12.9-9.3 48-56.2 48-100.6 0-11.8-6.4-22.4-13.7-26.2C38.6 108.2 0 99.8 0 52 0 24.5 23.1 0 54.9 0c42.4 0 85.2 31.7 85.2 90.9z" fill="#f3f3f1"/></svg>
