<?xml version="1.0" encoding="utf-8"?>
<!-- Generator: Adobe Illustrator 19.2.1, SVG Export Plug-In . SVG Version: 6.00 Build 0)  -->
<svg version="1.1" id="Слой_1" xmlns="http://www.w3.org/2000/svg" xmlns:xlink="http://www.w3.org/1999/xlink" x="0px" y="0px"
	 width="50px" height="50px" viewBox="0 0 50 50" style="enable-background:new 0 0 50 50;" xml:space="preserve">
<g>
	<g>
		<path d="M36.2,23.8V20c0-0.8-0.4-1.6-1-2.1c-0.7-0.5-1.6-0.7-2.3-0.5c-0.4,0.1-0.8-0.2-0.9-0.6c-0.1-0.4,0.2-0.8,0.6-0.9
			c1.3-0.3,2.6,0,3.7,0.8c1,0.8,1.6,1.9,1.6,3.3v3.8c0,0.3-0.3,0.7-0.8,0.7C36.5,24.5,36.2,24.2,36.2,23.8
			C36.2,23.8,36.2,23.8,36.2,23.8z M0.5,22.8v-4.4c0-1.1,0.4-2.1,1.2-2.9c-0.2-1.2-0.3-2.4-0.1-3.5c0.4-1.6,1.2-2.7,2.3-3.2
			c1.3-0.6,2.6-0.3,4,0l10.7,2.7c3.8,0.9,4.4,0.8,7.5,0l0.2,0l10.7-2.7c1.6-0.4,2.9-0.5,3.9,0c1.2,0.5,2,1.7,2.3,3.2
			c0.2,1.2,0.1,2.4-0.1,3.6c0,0.1,0,0.1-0.1,0.2c0.6,0.7,0.9,1.6,0.9,2.6v4.4c0,0.7-0.3,1.2-0.6,1.5c-0.1,0.2-0.2,0.3-0.6,0.3
			c-0.2,0-0.4-0.1-0.6-0.2c-0.3-0.3-0.3-0.8,0-1.1c0.1-0.1,0.2-0.3,0.2-0.4v-4.4c0-1.6-1.3-2.3-1.7-2.5c-1.1-0.4-2.1-0.3-2.9,0.5
			c-0.3,0.3-0.8,0.3-1.1,0c-0.3-0.3-0.3-0.8,0-1.1c1.3-1.2,3-1.5,4.6-0.8c0.1,0,0.1,0.1,0.2,0.1c0.1-0.7,0.2-1.4,0-2.2
			c-0.2-1.1-0.7-1.8-1.4-2.1c-0.8-0.4-1.8-0.2-2.9,0.1l-10.7,2.7c-3.4,0.9-4.2,1.1-8.5,0L7.2,10.3c-1-0.3-2-0.5-2.9-0.1
			c-0.6,0.3-1.1,1.1-1.3,2.1c-0.1,0.7-0.1,1.5,0,2.2c1.4-0.6,3-0.5,4.3,0.5c0.2,0.1,0.3,0.3,0.3,0.5c0,0.2,0,0.4-0.1,0.6
			c-0.3,0.4-0.7,0.4-1.1,0.2c-0.8-0.6-1.8-0.7-2.8-0.3c-1,0.5-1.5,1.3-1.5,2.4v4.3c0,0.3,0.3,0.7,0.7,0.7h3.8V20
			c0-1.3,0.5-2.5,1.5-3.2c1.1-0.9,2.4-1.2,3.6-0.9c0.4,0.1,0.6,0.5,0.6,0.8c-0.1,0.4-0.4,0.7-0.8,0.7c-0.9-0.2-1.7,0.1-2.4,0.6
			c-0.6,0.5-1,1.2-1,2.1v3.8c0,0.1,0.1,0.2,0.1,0.3c0,0.1,0,0.1-0.1,0.2v0.1c0,0.3,0.3,0.7,0.7,0.7h3.9v-6.5c0-2.2,1.8-3.9,3.9-3.9
			c1.3,0,2.5,0.6,3.3,1.7l1.3,2c0.3,0.4,0.6,1,0.8,1.6c0.2-0.6,0.5-1.2,0.9-1.7l1.3-2c0.8-1.1,2-1.7,3.3-1.7c2.2,0,3.9,1.8,3.9,3.9
			v5.5c0,0.5-0.4,0.8-0.8,0.8c-0.4,0-0.8-0.4-0.8-0.8v-5.4c0-1.3-1.1-2.5-2.5-2.5c-0.9,0-1.6,0.4-2,1.1l-1.3,2
			c-0.8,1.1-1.3,2.6-1.3,4.1v2.5c0,0.4,0.3,0.8,0.8,0.8h6.4c0.5,0,0.8,0.4,0.8,0.8c0,0.4-0.3,0.8-0.8,0.8h-6.3
			c-0.6,0-1.2-0.2-1.6-0.6c-0.4,0.4-1,0.6-1.6,0.6h-5.6c-1,0-1.9-0.6-2.2-1.6H8.8c-1,0-1.9-0.7-2.1-1.6h-4C1.5,25,0.5,24,0.5,22.8z
			 M21.5,22.9c0-0.1-0.1-0.2-0.1-0.3c-0.2-1-0.8-2.6-1.3-3.4l-1.3-2c-0.5-0.7-1.2-1.1-2-1.1c-1.4,0-2.5,1.1-2.5,2.5v7.2
			c0,0.4,0.3,0.8,0.8,0.8h5.6c0.3,0,0.8-0.3,0.8-0.8c0-0.2,0-0.3,0.1-0.4v-2.1C21.5,23.2,21.5,23.1,21.5,22.9L21.5,22.9z M43.5,31.6
			v4.7c0,0,0,0,0,0v2.3c0,1.5-1.2,2.8-2.8,2.8h-2.8c-1.2-0.1-2.1-0.1-3.1-0.1c-7.8,0-9.6-0.4-15.3-3.6c-6-3.2-11.1-3.2-16.5-3.1H2.9
			c-0.7,0-1.4-0.3-2-0.8C0.3,33.2,0,32.5,0,31.7c0-1.5,1.3-2.9,2.9-2.9h0.5c8.3-0.1,12-0.1,17.1,3.2c5.7,3.8,10.4,3.5,10.4,3.5h1
			v-3.9c0-0.5,0.4-0.8,0.8-0.8c0.4,0,0.8,0.4,0.8,0.8v3.9h1v-3.9c0-0.5,0.4-0.8,0.8-0.8c0.4,0,0.8,0.4,0.8,0.8v3.9h1v-3.9
			c0-0.5,0.4-0.8,0.8-0.8c0.5,0,0.8,0.4,0.8,0.8v3.9h1v-4c0-0.5,0.4-0.8,0.8-0.8c0.5,0,0.8,0.4,0.8,0.8v4.7c0,0.5-0.4,0.8-0.8,0.8
			h-2.1c-0.1,0.1-0.3,0.1-0.4,0.1c-0.1,0-0.3,0-0.4-0.1h-1.7c-0.1,0.1-0.3,0.1-0.4,0.1c-0.1,0-0.3,0-0.4-0.1h-1.7
			c-0.1,0.1-0.3,0.1-0.4,0.1c-0.1,0-0.3,0-0.4-0.1H31c-0.8,0.2-5.5,0.2-11.4-3.7c-4.6-3-8-3-16.2-3H3c-0.7,0-1.3,0.6-1.3,1.3
			c0,0.3,0.2,0.7,0.4,1C2.3,32.9,2.6,33,3,33c5.6-0.1,10.9-0.1,17.3,3.4c6.1,3.4,7.2,3.4,17.7,3.4h2.8c0.7,0,1.2-0.5,1.2-1.2v-2.3
			c0,0,0,0,0,0l0,0v-4.7c0-0.5,0.4-0.8,0.8-0.8C43.2,30.9,43.5,31.2,43.5,31.6L43.5,31.6z M43.6,29.5l-0.4,0.8l-0.8-0.4
			c-1.2-0.8-2.8-1-4-0.5c0,0-0.1,0.1-0.2,0.1c-0.1,0-0.1,0.1-0.2,0.1l-0.7,0.3c-0.2,0.1-0.3,0.1-0.4,0.1c-0.5,0.2-1,0.3-1.6,0.4v0h0
			c-1.3,0-2.4-0.6-3.1-1.7c-0.7-1.1-0.8-2.5-0.2-3.6l0.5-0.8l0.7,0.5c1.2,0.8,2.7,1,4,0.5c0,0,0.1-0.1,0.2-0.1c0.1,0,0.1,0,0.2-0.1
			l0.7-0.3c0.6-0.3,1.3-0.5,2-0.5c1.3-0.1,2.6,0.6,3.2,1.7C44.1,26.9,44.2,28.3,43.6,29.5z M38.4,27.5v0.2c1.3-0.3,2.7-0.2,3.9,0.3
			c0-0.4,0-0.9-0.3-1.2c-0.4-0.6-1.1-1-1.9-1c-0.6,0-1.2,0.3-1.7,0.5l-0.2,0.1L37,27v-0.1c-1.3,0.3-2.6,0.2-3.9-0.3
			c0,0.4,0,0.9,0.3,1.2c0.4,0.6,1.1,1,1.9,1c0.6,0,1.3-0.3,1.9-0.7L38.4,27.5z"/>
	</g>
</g>
</svg>
