<?xml version="1.0" encoding="utf-8"?>
<!-- Generator: Adobe Illustrator 19.2.1, SVG Export Plug-In . SVG Version: 6.00 Build 0)  -->
<svg version="1.1" id="Слой_1" xmlns="http://www.w3.org/2000/svg" xmlns:xlink="http://www.w3.org/1999/xlink" x="0px" y="0px"
	 width="50px" height="50px" viewBox="0 0 50 50" style="enable-background:new 0 0 50 50;" xml:space="preserve">
<g>
	<g>
		<path d="M41.7,10.1l-4.4,4.3c-0.2,0.1-0.4,0.2-0.6,0.2c-0.2,0-0.4-0.1-0.6-0.2c-0.3-0.3-0.3-0.8,0-1.1c0,0,0,0,0,0l4.3-4.3
			c0.3-0.3,0.8-0.3,1.1,0c0,0,0,0,0,0C42,9.2,42,9.7,41.7,10.1C41.7,10,41.7,10,41.7,10.1L41.7,10.1z M34.1,12.1
			c-0.1-0.2,0-0.5,0.1-0.7l2.2-3.5c0.1-0.2,0.3-0.3,0.4-0.4c0.2-0.1,0.5,0,0.7,0.1c0.2,0.1,0.3,0.2,0.4,0.4c0.1,0.2,0,0.5-0.1,0.7
			l-2.2,3.5c-0.1,0.3-0.4,0.4-0.7,0.4c-0.2,0-0.3-0.1-0.4-0.1C34.3,12.4,34.1,12.3,34.1,12.1L34.1,12.1z M43,13.6
			c0,0.2-0.2,0.4-0.4,0.5l-3.5,2.2c-0.2,0.1-0.4,0.1-0.5,0.1c-0.3,0-0.6-0.2-0.7-0.4c-0.2-0.4-0.1-0.9,0.3-1.1l3.5-2.2
			c0.5-0.2,0.9-0.1,1.1,0.3C43,13.2,43,13.4,43,13.6z M6.9,14.3c-0.2,0.2-0.4,0.2-0.6,0.2c-0.2,0-0.4-0.1-0.6-0.2l-4.3-4.3
			C1,9.8,1,9.3,1.3,8.9c0,0,0,0,0,0c0.3-0.3,0.8-0.3,1.1,0c0,0,0,0,0,0l4.3,4.3C7.2,13.5,7.2,14,6.9,14.3
			C6.9,14.3,6.9,14.3,6.9,14.3z M5.3,8.7C5,8.3,5.2,7.8,5.6,7.6C5.7,7.5,6,7.5,6.2,7.5c0.2,0,0.4,0.2,0.5,0.4l2.2,3.5
			c0.2,0.4,0.1,0.9-0.3,1.1c-0.4,0.2-0.8,0.2-1.1-0.2c0,0,0-0.1,0-0.1L5.3,8.7z M5.1,15.3c0.1,0.2,0,0.5-0.1,0.7
			c-0.1,0.3-0.4,0.4-0.7,0.4c-0.2,0-0.3-0.1-0.4-0.1l-3.6-2.2C0.2,14,0.1,13.8,0,13.6C0,13.4,0,13.2,0.1,13c0.1-0.2,0.3-0.3,0.4-0.4
			c0.2-0.1,0.5,0,0.7,0.1l3.5,2.2C4.9,15,5.1,15.1,5.1,15.3L5.1,15.3z M36.3,24.4c-0.5,1.8-1.1,3.1-1.9,4c-0.3,0.4-0.5,0.9-0.5,1.4
			c0.1,2.4-0.3,7.1-4,11.6c-0.4,0.5-1.1,0.8-1.7,0.8c-0.2,0-0.3,0-0.5-0.1c-0.8-0.2-1.5-0.8-1.7-1.6c-0.6-2.2-1.3-4.5-2.1-6.6
			c-0.5-1.2-1.5-1.6-2.3-1.6c-0.4,0-1.8,0.1-2.3,1.6c-0.8,2.2-1.5,4.4-2.1,6.6c-0.2,0.8-0.9,1.5-1.7,1.6c-0.9,0.2-1.7-0.1-2.3-0.8
			c-2.7-3.2-4.1-7.3-4-11.5c0-0.4-0.1-1-0.5-1.4c-0.8-1-1.5-2.3-1.9-3.9c-0.9-3.6,0.4-7.4,3.3-9.5c1.5-1,3.3-1.6,5.1-1.6
			c2.4,0,4.6,0.9,6.3,2.6c1.7-1.7,3.9-2.6,6.3-2.6c1.8,0,3.6,0.5,5.1,1.6C35.9,17,37.2,20.8,36.3,24.4L36.3,24.4z M33.1,27.2
			c0.6-0.7,1.2-1.8,1.5-3.3c0.8-2.9-0.3-6-2.7-7.7c-1.2-0.8-2.7-1.3-4.2-1.3c-2,0-3.9,0.8-5.2,2.3c0.4,0.5,0.9,1.4,1.2,2.2
			c0.1,0.4,0,0.8-0.4,1c-0.1,0.1-0.3,0.1-0.4,0.1c-0.3,0-0.6-0.2-0.8-0.5c-0.4-1-1.1-2-1.3-2.3h0l-0.1-0.1c0-0.1-0.1-0.1-0.1-0.2
			c-1.4-1.6-3.3-2.5-5.5-2.5c-1.5,0-2.9,0.5-4.2,1.3C8.7,17.9,7.6,21,8.3,24c0.4,1.4,0.9,2.5,1.6,3.3c0.6,0.7,0.9,1.6,0.9,2.5
			c-0.1,1.8,0.1,6.3,3.6,10.4c0.3,0.3,0.5,0.2,0.6,0.2c0.3-0.1,0.4-0.2,0.5-0.5c0.6-2.4,1.4-4.7,2.2-6.8c0.6-1.6,2.1-2.6,3.8-2.6
			c1.7,0,3.2,1,3.8,2.6c0.8,2.1,1.5,4.3,2.2,6.8c0.1,0.3,0.2,0.4,0.5,0.5c0.3,0,0.5,0,0.6-0.2c2.5-2.9,3.7-6.7,3.6-10.5
			C32.2,28.8,32.5,27.9,33.1,27.2L33.1,27.2z"/>
	</g>
</g>
</svg>
