<?xml version="1.0" encoding="utf-8"?>
<!-- Generator: Adobe Illustrator 19.2.1, SVG Export Plug-In . SVG Version: 6.00 Build 0)  -->
<svg version="1.1" id="Слой_1" xmlns="http://www.w3.org/2000/svg" xmlns:xlink="http://www.w3.org/1999/xlink" x="0px" y="0px"
	 width="50px" height="50px" viewBox="0 0 50 50" style="enable-background:new 0 0 50 50;" xml:space="preserve">
<path d="M1.6,19.1c0.1-0.4,0.5-0.5,0.7-0.4c0.3,0.1,0.4,0,0.5,0.2s0.1,0.4,0,0.6c-0.2,0.8-0.1,0.7,0.3,2.3c0.2,1.2,0.8,2.4,1.5,3.2
	c0.6,0.8,0.9,1.6,0.8,2.4c0,3.9,1.2,7.3,3.5,10.1c0.2,0.1,0.5,0.2,0.7,0.2c0.1,0,0.4-0.2,0.5-0.5c0.6-2.2,1.4-4.4,2.2-6.5
	c0.6-1.5,2-2.5,3.7-2.5s3.1,1,3.7,2.5c1.1,2.7,1.9,5.3,2.2,6.5c0.1,0.2,0.2,0.5,0.5,0.5s0.5-0.1,0.7-0.3c2.3-2.8,3.5-6.3,3.5-10.1
	c-0.1-0.9,0.2-1.8,0.8-2.4c0.9-1,1.4-2.5,1.5-3.1c0.8-2.9-0.3-5.9-2.5-7.3c-1.2-0.9-2.6-1.3-4.1-1.3c-2.1,0-4.1,0.9-5.5,2.6
	c-0.1,0-0.1,0.1-0.2,0.2c-0.3,0.4-0.9,1.2-1.2,2c-0.1,0.3-0.4,0.5-0.7,0.5c-0.1,0-0.1-0.1-0.2-0.1h-0.1c-0.3-0.1-0.5-0.5-0.4-0.9
	c0.4-0.8,0.8-1.6,1.2-2.1C13.9,13.8,12,13,10,13c-0.8,0-1.4,0.1-1.9,0.2c-0.2,0.1-0.4,0.1-0.6,0c-0.2-0.1-0.3-0.3-0.4-0.5
	c-0.1-0.1-0.1-0.3,0-0.5s0.3-0.3,0.5-0.4c0.7-0.2,1.4-0.3,2.4-0.3c2.3,0,4.5,0.9,6.1,2.5c1.6-1.6,3.8-2.5,6.1-2.5
	c1.8,0,3.6,0.6,5,1.6c2.8,2,4.1,5.6,3.2,9c-0.4,1.5-1,2.8-1.8,3.7c-0.4,0.4-0.5,0.9-0.5,1.4c0,2.3-0.4,6.8-3.9,11
	c-0.4,0.6-1.3,0.9-2.1,0.7c-0.8-0.1-1.5-0.7-1.5-1.5c-0.4-1.7-1.2-4.1-2.1-6.3c-0.6-1.5-1.9-1.6-2.3-1.6c-0.8,0-1.9,0.4-2.3,1.5
	c-0.8,2.2-1.6,4.5-2.1,6.4c-0.2,0.8-0.8,1.4-1.6,1.5C10,39,9.8,39,9.7,39c-0.6,0-1.2-0.3-1.6-0.7c-2.7-3-4-6.8-3.9-11
	c0-0.5-0.2-1.1-0.5-1.4C3,25,2.4,23.8,1.9,22.1c-0.5-1.9-0.3-2.7-0.3-2.9L1.6,19.1z"/>
<path d="M5.7,11.7c0-0.1,0-0.2-0.1-0.3C5.6,11.1,5.3,11,5.2,11c0,0-0.1,0-0.1,0c0,0,0,0-0.1,0c-1.4,0-2.6,0.6-3.5,1.6
	c-1,1.1-1.5,2.6-1.4,4.2c0,0,0,0.1,0,0.1c0,0.1,0,0.2,0.1,0.3c0.1,0.4,0.3,0.5,0.5,0.5c0,0,0.1,0,0.1,0c0,0,0,0,0,0c0,0,0,0,0,0
	c1.4,0,2.6-0.6,3.5-1.6c1-1.1,1.5-2.6,1.4-4.2C5.7,11.8,5.7,11.7,5.7,11.7z M3.2,15.2c-0.5,0.5-1.1,0.8-1.7,0.9c0-1,0.4-2,1.1-2.7
	c0.5-0.5,1.1-0.8,1.7-0.9C4.2,13.4,3.9,14.4,3.2,15.2z"/>
<path d="M8,11.9c0.3,0,0.4,0.3,0.5,0.7c0.3,4.2-2.6,7.4-6.2,7.4c-0.4,0-0.7-0.4-0.7-0.7c0-0.3,0.3-0.8,0.7-0.7
	c2.8,0.4,5.3-2.9,4.7-6C7,12.5,7.5,11.8,8,11.9z"/>
</svg>
