<svg version="1.1" id="Слой_1" xmlns="http://www.w3.org/2000/svg" x="0" y="0" width="32" height="30" xml:space="preserve"><style>.st0{fill:#16bcca}</style><path class="st0" d="M26.4 9.4c-.7.3-1 1-.8 1.7 2.3 6.1-.8 13-6.9 15.3-3 1.1-6.2 1-9-.3-2.9-1.3-5.1-3.6-6.2-6.6-1.1-3-1-6.2.3-9.1 1.3-2.9 3.6-5.1 6.6-6.2 3.7-1.4 7.9-.9 11.1 1.5.3.2.7.3 1 .3.4 0 .7-.2.9-.5.2-.3.3-.7.3-1 0-.4-.2-.7-.5-.9l-.1-.1C20.6 1.7 17.7.7 14.7.7H14c-1.6.1-3.2.4-4.7.9C1.9 4.5-1.9 13 .9 20.5 2.3 24.2 5 27 8.6 28.7c1.9.9 4 1.3 6 1.3 1.7 0 3.5-.3 5.2-1 3.6-1.4 6.5-4.1 8.1-7.7 1.6-3.6 1.7-7.5.3-11.2-.3-.6-1.1-1-1.8-.7z"/><path class="st0" d="M31.6.4c-.3-.3-.7-.4-1.1-.4-.4 0-.7.2-.9.4-1.9 2-5.3 5.6-8.5 9-2.8 3-5.7 6.1-7.7 8.2l-4.9-4.3c-.3-.3-.6-.4-1-.4s-.7.2-1 .5c-.2.3-.4.6-.4 1s.2.7.5 1l5.9 5.2c.3.2.6.4.9.4.4 0 .7-.1 1-.4 1.9-2 5.3-5.6 8.6-9.1 3.2-3.4 6.6-7 8.5-9 .3-.3.4-.6.4-1 .1-.5 0-.8-.3-1.1z"/></svg>
