<svg aria-hidden="true" style="position: absolute; width: 0; height: 0; overflow: hidden;" version="1.1" xmlns="http://www.w3.org/2000/svg" xmlns:xlink="http://www.w3.org/1999/xlink">
<defs>
<symbol id="icon-telegram-logo" viewBox="0 0 32 32">
<path d="M25.761 30.312c-0.25 0-0.498-0.074-0.711-0.218l-8.046-5.458-4.315 3.105c-0.338 0.243-0.775 0.305-1.168 0.164s-0.691-0.466-0.797-0.869l-2.167-8.212-7.742-2.96c-0.487-0.186-0.811-0.653-0.814-1.175s0.313-0.993 0.798-1.186l29.439-11.714c0.134-0.057 0.275-0.089 0.418-0.098 0.051-0.003 0.102-0.003 0.153-0 0.295 0.018 0.585 0.138 0.811 0.36 0.023 0.023 0.046 0.046 0.067 0.071 0.187 0.214 0.291 0.475 0.31 0.741 0.005 0.067 0.004 0.135-0.002 0.202-0.004 0.048-0.011 0.096-0.021 0.144l-4.969 26.073c-0.080 0.419-0.365 0.769-0.759 0.933-0.156 0.065-0.321 0.097-0.485 0.097zM17.71 22.053l7.167 4.861 3.867-20.288-13.965 13.438 2.897 1.966c0.012 0.007 0.023 0.015 0.034 0.023zM11.744 20.972l0.96 3.636 2.068-1.488-2.707-1.837c-0.126-0.085-0.234-0.191-0.32-0.312zM4.752 14.657l5.316 2.033c0.381 0.146 0.668 0.466 0.772 0.86l0.674 2.555c0.031-0.295 0.165-0.572 0.382-0.781l13.307-12.804-20.451 8.137z"></path>
</symbol>
<symbol id="icon-viber" viewBox="0 0 32 32">
<path d="M30.873 18.524c0.955-8.036-0.459-13.109-3.008-15.404l0.001-0.001c-4.115-3.919-18.011-4.499-22.933 0.176-2.211 2.287-2.989 5.643-3.075 9.797-0.085 4.156-0.187 11.941 7.068 14.053h0.007l-0.007 3.225s-0.049 1.307 0.785 1.569c0.955 0.309 1.387-0.297 4.356-3.844 4.965 0.431 8.779-0.556 9.212-0.7 1.003-0.336 6.676-1.087 7.593-8.872zM14.557 25.827s-3.143 3.919-4.12 4.936c-0.32 0.331-0.671 0.3-0.665-0.356 0-0.431 0.024-5.355 0.024-5.355-6.151-1.763-5.788-8.392-5.721-11.86 0.067-3.469 0.701-6.311 2.573-8.224 4.319-4.049 16.501-3.144 19.605-0.227 3.795 3.364 2.444 12.868 2.452 13.192-0.78 6.499-5.377 6.911-6.223 7.192-0.361 0.12-3.715 0.983-7.925 0.701z"></path>
<path d="M16.296 5.729c-0.513 0-0.513 0.8 0 0.807 3.983 0.031 7.263 2.807 7.299 7.899 0 0.537 0.787 0.531 0.78-0.007h-0.001c-0.043-5.487-3.624-8.668-8.077-8.699z"></path>
<path d="M21.535 13.591c-0.012 0.531 0.773 0.556 0.78 0.019 0.065-3.025-1.8-5.517-5.305-5.78-0.513-0.037-0.567 0.769-0.055 0.807 3.040 0.231 4.641 2.305 4.58 4.955z"></path>
<path d="M20.695 17.032c-0.659-0.381-1.329-0.144-1.607 0.231l-0.58 0.751c-0.295 0.381-0.845 0.331-0.845 0.331-4.019-1.063-5.093-5.268-5.093-5.268s-0.049-0.569 0.319-0.875l0.725-0.6c0.363-0.288 0.592-0.981 0.223-1.663-0.987-1.783-1.649-2.397-1.987-2.869-0.355-0.444-0.888-0.544-1.443-0.244h-0.012c-1.153 0.675-2.416 1.937-2.012 3.237 0.689 1.371 1.956 5.74 5.993 9.041 1.897 1.561 4.9 3.161 6.175 3.531l0.012 0.019c1.256 0.419 2.477-0.893 3.129-2.081v-0.009c0.289-0.575 0.193-1.119-0.229-1.475-0.749-0.731-1.88-1.537-2.768-2.056z"></path>
<path d="M17.559 10.805c1.281 0.075 1.903 0.744 1.969 2.119 0.024 0.537 0.804 0.5 0.78-0.037-0.085-1.795-1.021-2.795-2.707-2.888-0.513-0.031-0.561 0.776-0.043 0.807z"></path>
</symbol>
<symbol id="icon-whatsapp" viewBox="0 0 32 32">
<path d="M27.281 4.65c-2.994-3-6.975-4.65-11.219-4.65-8.738 0-15.85 7.112-15.85 15.856 0 2.794 0.731 5.525 2.119 7.925l-2.25 8.219 8.406-2.206c2.319 1.262 4.925 1.931 7.575 1.931h0.006c0 0 0 0 0 0 8.738 0 15.856-7.113 15.856-15.856 0-4.238-1.65-8.219-4.644-11.219zM16.069 29.050v0c-2.369 0-4.688-0.637-6.713-1.837l-0.481-0.288-4.987 1.306 1.331-4.863-0.313-0.5c-1.325-2.094-2.019-4.519-2.019-7.012 0-7.269 5.912-13.181 13.188-13.181 3.519 0 6.831 1.375 9.319 3.862 2.488 2.494 3.856 5.8 3.856 9.325-0.006 7.275-5.919 13.188-13.181 13.188zM23.294 19.175c-0.394-0.2-2.344-1.156-2.706-1.288s-0.625-0.2-0.894 0.2c-0.262 0.394-1.025 1.288-1.256 1.556-0.231 0.262-0.462 0.3-0.856 0.1s-1.675-0.619-3.188-1.969c-1.175-1.050-1.975-2.35-2.206-2.744s-0.025-0.613 0.175-0.806c0.181-0.175 0.394-0.463 0.594-0.694s0.262-0.394 0.394-0.662c0.131-0.262 0.069-0.494-0.031-0.694s-0.894-2.15-1.219-2.944c-0.319-0.775-0.65-0.669-0.894-0.681-0.231-0.012-0.494-0.012-0.756-0.012s-0.694 0.1-1.056 0.494c-0.363 0.394-1.387 1.356-1.387 3.306s1.419 3.831 1.619 4.1c0.2 0.262 2.794 4.269 6.769 5.981 0.944 0.406 1.681 0.65 2.256 0.837 0.95 0.3 1.813 0.256 2.494 0.156 0.762-0.113 2.344-0.956 2.675-1.881s0.331-1.719 0.231-1.881c-0.094-0.175-0.356-0.275-0.756-0.475z"></path>
</symbol>
</defs>
</svg>
