<svg aria-hidden="true" style="position: absolute; width: 0; height: 0; overflow: hidden;" version="1.1" xmlns="http://www.w3.org/2000/svg" xmlns:xlink="http://www.w3.org/1999/xlink">
<defs>
<symbol id="icon-fb" viewBox="0 0 32 32">
<path d="M19.269 31.781c-0.156 0.006-0.256 0.019-0.356 0.019-2.137 0-4.269-0.006-6.406 0.006-0.3 0-0.381-0.081-0.381-0.381 0.006-4.975 0.006-9.956 0.006-14.931 0-0.131 0-0.262 0-0.431-1.162 0-2.294 0-3.444 0 0-1.775 0-3.519 0-5.313 0.119 0 0.231 0 0.338 0 0.938 0 1.875-0.006 2.813 0.006 0.238 0 0.3-0.069 0.3-0.3-0.012-1.394-0.012-2.794 0-4.188 0.006-0.975 0.162-1.925 0.613-2.806 0.644-1.244 1.662-2.050 2.95-2.55 1.050-0.412 2.156-0.563 3.269-0.581 1.813-0.025 3.625-0.013 5.438-0.019 0.169 0 0.306-0.006 0.306 0.231-0.006 1.719-0.006 3.438-0.006 5.156 0 0.019-0.006 0.037-0.031 0.119-0.106 0-0.225 0-0.344 0-1.125 0-2.25-0.006-3.375 0-0.65 0-1.175 0.263-1.506 0.831-0.1 0.169-0.163 0.388-0.163 0.588-0.019 1.063 0 2.125-0.012 3.188 0 0.25 0.075 0.319 0.319 0.319 1.563-0.012 3.125-0.006 4.688-0.006 0.125 0 0.244 0 0.456 0-0.219 1.787-0.431 3.537-0.65 5.306-1.625 0-3.206 0-4.819 0 0 5.256 0 10.481 0 15.738z"></path>
</symbol>
<symbol id="icon-instagram" viewBox="0 0 32 32">
<path d="M31.563 16.063c0 2.175-0.044 4.356 0.012 6.531 0.094 3.85-2.325 6.825-5.406 8.15-1.238 0.531-2.538 0.813-3.881 0.813-4.206 0.006-8.419 0.063-12.625-0.019-3.169-0.063-5.775-1.387-7.644-4-0.981-1.375-1.45-2.938-1.45-4.631 0-4.481 0-8.956 0-13.438 0-3.656 1.781-6.213 4.944-7.875 1.375-0.719 2.869-1.025 4.425-1.031 4.081 0 8.169-0.025 12.25 0.012 3.169 0.025 5.813 1.238 7.762 3.787 1.087 1.425 1.613 3.063 1.613 4.862 0 2.275 0 4.556 0 6.838zM2.875 16.063c0 2.294 0 4.581 0 6.875 0 1.025 0.237 1.988 0.769 2.856 1.394 2.281 3.5 3.394 6.112 3.438 4.194 0.063 8.394 0.025 12.594 0.012 1.031 0 2.031-0.212 2.962-0.656 2.538-1.212 3.956-3.144 3.944-6.044-0.025-4.438-0.006-8.875-0.006-13.313 0-1.256-0.356-2.406-1.1-3.419-1.438-1.944-3.425-2.9-5.8-2.925-4.188-0.050-8.375-0.019-12.563-0.013-0.894 0-1.756 0.181-2.594 0.494-2.3 0.856-4.438 3.025-4.338 6.219 0.075 2.162 0.019 4.319 0.019 6.475z"></path>
<path d="M16.1 22.688c-4.031 0-7.281-3.212-7.287-7.213-0.006-3.938 3.269-7.162 7.275-7.162 4.019-0.006 7.281 3.213 7.287 7.181 0 3.963-3.256 7.187-7.275 7.194zM16.1 20.375c2.744 0 4.969-2.194 4.962-4.894-0.006-2.675-2.231-4.863-4.962-4.863-2.744 0-4.981 2.181-4.981 4.875 0.006 2.7 2.238 4.887 4.981 4.881z"></path>
<path d="M24.219 6.125c0.844 0 1.531 0.719 1.531 1.6-0.006 0.881-0.7 1.594-1.544 1.588-0.831-0.006-1.512-0.719-1.512-1.581-0.006-0.881 0.681-1.606 1.525-1.606z"></path>
</symbol>
</defs>
</svg>
